<?xml version="1.0" standalone="no"?>
<!DOCTYPE svg PUBLIC "-//W3C//DTD SVG 20010904//EN"
 "http://www.w3.org/TR/2001/REC-SVG-20010904/DTD/svg10.dtd">
<svg version="1.0" xmlns="http://www.w3.org/2000/svg"
 width="430.000000pt" height="430.000000pt" viewBox="0 0 430.000000 430.000000"
 preserveAspectRatio="xMidYMid meet">

<g transform="translate(0.000000,430.000000) scale(0.100000,-0.100000)"
fill="#ff0000" stroke="none">
<path d="M750 3072 l0 -187 143 -143 142 -142 486 0 486 0 56 -59 c48 -50 57
-65 57 -95 l0 -36 -520 0 -520 0 0 -97 0 -98 597 -597 598 -598 207 0 208 0 0
202 0 203 -202 202 -203 203 203 0 202 0 0 413 0 412 -303 303 -302 302 -668
0 -667 0 0 -188z"/>
<path d="M750 1790 l0 -485 143 -143 142 -142 153 0 152 0 0 333 0 332 -295
295 -295 295 0 -485z"/>
<path d="M3280 1277 l0 -123 68 -67 68 -67 117 0 117 0 0 190 0 190 -185 0
-185 0 0 -123z"/>
</g>
</svg>
