<?xml version="1.0" standalone="no"?>
<!DOCTYPE svg PUBLIC "-//W3C//DTD SVG 20010904//EN"
 "http://www.w3.org/TR/2001/REC-SVG-20010904/DTD/svg10.dtd">
<svg version="1.0" xmlns="http://www.w3.org/2000/svg"
 width="512.000000pt" height="512.000000pt" viewBox="0 0 512.000000 512.000000"
 preserveAspectRatio="xMidYMid meet">

<g transform="translate(0.000000,512.000000) scale(0.100000,-0.100000)"
fill="#000000" stroke="none">
<path d="M3820 5104 c-85 -23 -158 -64 -219 -124 -277 -271 -153 -727 224
-824 158 -42 328 7 452 131 97 97 143 207 143 343 0 136 -46 246 -143 343
-124 124 -298 174 -457 131z m213 -261 c49 -20 111 -92 127 -148 66 -236 -225
-405 -392 -228 -38 40 -68 111 -68 163 0 89 73 194 152 218 73 23 110 22 181
-5z"/>
<path d="M1613 3863 c-56 -11 -100 -93 -82 -156 6 -21 56 -79 151 -174 l143
-143 -143 -143 c-152 -153 -168 -178 -150 -243 20 -74 93 -109 165 -79 22 9
92 70 173 150 l136 135 139 -140 c100 -100 150 -143 174 -150 93 -26 174 51
156 148 -5 29 -34 64 -148 179 l-141 143 141 143 c146 148 162 173 148 237
-15 69 -91 113 -158 91 -20 -7 -86 -64 -172 -151 l-139 -139 -146 143 c-111
109 -153 144 -179 149 -18 4 -36 6 -40 6 -3 -1 -16 -4 -28 -6z"/>
<path d="M3865 3831 c-16 -10 -143 -133 -281 -272 -263 -266 -272 -278 -258
-349 8 -38 48 -78 88 -88 66 -18 91 -2 249 155 l149 148 -5 -225 c-4 -194 -7
-235 -26 -300 -89 -301 -353 -516 -661 -537 -47 -3 -97 -12 -112 -19 -88 -45
-90 -173 -3 -220 27 -14 49 -16 131 -11 173 10 324 61 479 163 150 98 270 237
350 406 75 158 87 225 92 502 l5 239 141 -140 c78 -78 152 -146 164 -152 12
-6 40 -11 62 -11 49 0 105 44 114 90 15 72 7 82 -262 353 -141 142 -268 265
-283 273 -38 20 -97 17 -133 -5z"/>
<path d="M2013 2344 c-119 -59 -80 -234 52 -234 133 0 171 177 51 234 -42 20
-62 20 -103 0z"/>
<path d="M2511 2343 c-118 -58 -78 -233 54 -233 98 0 156 103 105 185 -21 33
-73 65 -107 65 -10 0 -33 -8 -52 -17z"/>
<path d="M1506 2259 c-84 -66 -68 -184 31 -218 137 -48 227 149 103 223 -39
23 -101 21 -134 -5z"/>
<path d="M1144 1950 c-65 -26 -87 -131 -39 -189 53 -62 137 -62 191 2 23 27
26 38 22 86 -4 45 -10 59 -37 83 -24 22 -41 28 -74 27 -23 0 -52 -4 -63 -9z"/>
<path d="M3514 1821 c-39 -24 -58 -69 -51 -123 5 -37 20 -55 146 -182 78 -78
141 -146 141 -151 0 -5 -63 -73 -141 -151 -128 -128 -141 -144 -146 -184 -14
-99 88 -172 175 -126 15 8 85 73 157 145 71 72 134 131 140 131 5 0 73 -63
151 -141 134 -133 144 -141 187 -146 80 -9 137 42 137 125 0 50 -11 65 -164
219 l-130 133 147 148 147 149 0 53 c0 47 -3 56 -36 86 -31 29 -42 34 -86 34
l-51 0 -149 -147 -148 -147 -133 130 c-72 72 -143 139 -157 148 -33 21 -98 20
-136 -3z"/>
<path d="M999 1475 c-38 -21 -62 -64 -62 -110 0 -50 24 -88 68 -109 41 -20 68
-20 109 -1 87 42 89 178 2 219 -41 19 -82 20 -117 1z"/>
<path d="M2011 1164 c-38 -31 -55 -87 -41 -134 7 -24 52 -77 150 -175 l140
-140 -140 -140 c-152 -151 -168 -179 -150 -246 18 -66 86 -102 156 -85 16 4
86 65 171 149 l144 141 137 -136 c75 -75 147 -141 159 -147 88 -45 195 38 177
137 -5 30 -32 63 -150 182 l-144 146 140 139 c154 153 172 184 150 250 -23 71
-108 107 -173 74 -12 -6 -84 -72 -159 -147 l-138 -137 -137 137 c-76 75 -148
141 -160 147 -39 20 -99 13 -132 -15z"/>
<path d="M943 965 c-179 -49 -313 -185 -357 -366 -20 -82 -20 -136 0 -218 45
-183 179 -319 361 -366 151 -39 322 6 440 118 170 161 206 405 89 604 -109
184 -336 281 -533 228z m181 -249 c141 -43 207 -200 140 -334 -108 -218 -437
-137 -437 108 0 104 58 188 155 221 65 22 82 23 142 5z"/>
</g>
</svg>
