<?xml version="1.0" encoding="UTF-8" standalone="no"?>
<!DOCTYPE svg PUBLIC "-//W3C//DTD SVG 20010904//EN" "http://www.w3.org/TR/2001/REC-SVG-20010904/DTD/svg10.dtd">
<svg version="1.0" xmlns="http://www.w3.org/2000/svg" width="512.000000pt" height="512.000000pt" viewBox="0 0 512.000000 512.000000" preserveAspectRatio="xMidYMid meet">

<g transform="translate(0.000000,512.000000) scale(0.100000,-0.100000)" fill="#0e76a8" stroke="none">
<path d="M371 5109 c-72 -14 -168 -65 -226 -120 -63 -60 -119 -163 -135 -248 -14 -74 -14 -4288 0 -4362 34 -181 187 -334 369 -369 73 -14 4287 -14 4362 0 181 34 334 187 369 369 14 74 14 4288 0 4362 -35 182 -188 335 -369 369 -67 13 -4306 12 -4370 -1z m940 -565 c199 -58 352 -226 395 -434 57 -272 -128 -561 -406 -635 -30 -8 -91 -15 -135 -15 -156 0 -279 51 -391 164 -139 139 -193 326 -149 514 21 88 65 171 130 240 115 124 243 181 406 182 59 0 116 -6 150 -16z m2444 -1264 c444 -50 713 -329 800 -830 29 -167 35 -336 35 -1063 0 -802 3 -762 -62 -809 -33 -23 -33 -23 -368 -23 -368 0 -382 2 -423 59 l-22 31 -5 745 c-6 726 -6 747 -28 823 -43 155 -109 244 -221 295 -45 21 -76 27 -152 30 -240 10 -379 -101 -461 -370 -22 -72 -22 -83 -28 -795 -5 -709 -5 -722 -26 -749 -11 -15 -33 -37 -48 -48 -26 -20 -40 -21 -361 -21 -321 0 -335 1 -361 21 -15 11 -37 33 -48 48 -21 27 -21 33 -24 1253 -1 790 1 1238 8 1262 5 20 26 52 45 71 l36 35 330 3 c365 3 377 1 422 -62 19 -26 22 -47 26 -138 l3 -108 45 55 c183 223 510 327 888 285z m-2245 -48 c19 -9 45 -32 57 -51 l23 -34 0 -1244 c0 -1391 6 -1279 -70 -1326 -34 -21 -44 -22 -355 -22 -302 0 -322 1 -354 20 -19 11 -43 33 -55 48 l-21 28 -3 1222 c-1 672 0 1236 3 1254 7 40 49 91 90 109 23 10 105 13 340 14 276 0 314 -2 345 -18z"/>
</g>
</svg>